<?xml version="1.0" encoding="UTF-8"?>
<svg id="Logo_horizontal" data-name="Logo horizontal" xmlns="http://www.w3.org/2000/svg" xmlns:xlink="http://www.w3.org/1999/xlink" viewBox="0 0 2011.68 530.53">
  <defs>
    <style>
      .cls-1 {
        fill: url(#Degradado_sin_nombre_55);
      }

      .cls-1, .cls-2, .cls-3, .cls-4, .cls-5, .cls-6, .cls-7, .cls-8, .cls-9, .cls-10, .cls-11 {
        stroke-width: 0px;
      }

      .cls-12 {
        letter-spacing: .05em;
      }

      .cls-2 {
        fill: #001e72;
      }

      .cls-3 {
        fill: #0081f1;
      }

      .cls-13 {
        font-family: Montserrat-ExtraBold, Montserrat;
        font-size: 180px;
        font-variation-settings: 'wght' 800;
        font-weight: 700;
      }

      .cls-13, .cls-14 {
        fill: #001d74;
      }

      .cls-4 {
        fill: #0043cf;
      }

      .cls-15 {
        letter-spacing: .03em;
      }

      .cls-5 {
        fill: url(#Degradado_sin_nombre_45);
      }

      .cls-6 {
        fill: #00248f;
      }

      .cls-16 {
        letter-spacing: .02em;
      }

      .cls-17 {
        letter-spacing: .19em;
      }

      .cls-7 {
        fill: #0032aa;
      }

      .cls-14 {
        font-family: Montserrat-Regular, Montserrat;
        font-size: 79.87px;
        font-variation-settings: 'wght' 400;
      }

      .cls-8 {
        fill: #004cda;
      }

      .cls-9 {
        fill: #0177f0;
      }

      .cls-18 {
        letter-spacing: .04em;
      }

      .cls-19 {
        letter-spacing: .2em;
      }

      .cls-10 {
        fill: #00248e;
      }

      .cls-11 {
        fill: #0042ce;
      }
    </style>
    <linearGradient id="Degradado_sin_nombre_45" data-name="Degradado sin nombre 45" x1="530.34" y1="204.97" x2="788.26" y2="204.97" gradientUnits="userSpaceOnUse">
      <stop offset="0" stop-color="#fff"/>
      <stop offset=".03" stop-color="#feefc8"/>
      <stop offset=".08" stop-color="#fedc83"/>
      <stop offset=".12" stop-color="#fecd4c"/>
      <stop offset=".15" stop-color="#fec325"/>
      <stop offset=".18" stop-color="#febc0c"/>
      <stop offset=".19" stop-color="#feba04"/>
      <stop offset=".24" stop-color="#febc0d"/>
      <stop offset=".33" stop-color="#fec425"/>
      <stop offset=".44" stop-color="#fed04d"/>
      <stop offset=".46" stop-color="#fed357"/>
      <stop offset=".52" stop-color="#fed560"/>
      <stop offset=".63" stop-color="#fedc7b"/>
      <stop offset=".77" stop-color="#fee7a6"/>
      <stop offset=".93" stop-color="#fef7e1"/>
      <stop offset="1" stop-color="#fff"/>
    </linearGradient>
    <linearGradient id="Degradado_sin_nombre_55" data-name="Degradado sin nombre 55" x1="1298.85" y1="166.62" x2="1372.18" y2="166.62" gradientUnits="userSpaceOnUse">
      <stop offset=".23" stop-color="#0049d9"/>
      <stop offset=".45" stop-color="#005de1"/>
      <stop offset=".92" stop-color="#0092f7"/>
      <stop offset="1" stop-color="#009cfb"/>
    </linearGradient>
  </defs>
  <g id="Base_torre" data-name="Base torre">
    <polygon class="cls-11" points="538.26 331.25 464.89 383.22 463.36 319.29 525.57 288.53 538.26 331.25"/>
    <path class="cls-9" d="m538.39,330.47l20.84,70.11s174.06,31.83,211.71,58.36c0,0-149.45-24.97-174.95-27.09-25.62-2.14-129.42-7.96-129.96-6.25l-67.66,1.89,140.02-97.01Z"/>
    <path class="cls-10" d="m465.46,380.99l-2.1-61.7-83.62,47.12-11.12,35.4s-101.1,20.56-125.18,27.69c-27.09,8.02-75.64,28.4-74.72,28.86,0,0,104.21-20.27,123.35-21.98,19.14-1.71,108.25-9.28,108.25-9.28l65.13-46.11Z"/>
  </g>
  <g id="Base_sup" data-name="Base sup">
    <polygon class="cls-7" points="463.36 309.76 386.69 342.6 401.59 278.7 463.36 261.63 463.36 309.76"/>
    <polygon class="cls-2" points="463.36 261.63 401.59 278.7 377.53 252.6 463.36 229.86 463.36 261.63"/>
    <polygon class="cls-8" points="463.36 261.63 524.75 277.42 546.48 253.73 463.36 229.86 463.36 261.63"/>
  </g>
  <g id="Fuente_de_foco" data-name="Fuente de foco">
    <polygon class="cls-2" points="463.49 213.63 382.14 235.74 381.26 197.34 463.36 172.2 463.49 213.63"/>
    <polygon class="cls-3" points="463.49 213.63 512.25 199.17 533.09 193.29 463.61 172.2 463.49 213.63"/>
    <polyline class="cls-3" points="511.49 198.98 511.17 222.25 523.23 229.36 463.49 213.63"/>
  </g>
  <g id="Tecgo">
    <polygon class="cls-6" points="463.36 156.16 359.91 188.56 348.54 158.81 462.22 110.12 463.36 156.16"/>
    <polygon class="cls-4" points="463.36 156.16 565.21 188.05 578.18 158.81 462.22 110.12 463.36 156.16"/>
  </g>
  <polygon id="Luz" class="cls-5" points="530.34 207.8 776.37 274.02 788.26 135.92 530.34 207.8"/>
  <g id="Titulo">
    <text class="cls-13" transform="translate(854.09 313.11)"><tspan class="cls-17" x="0" y="0">V</tspan><tspan class="cls-19" x="171.18" y="0">IGIA</tspan></text>
    <polygon class="cls-1" points="1338.94 182.71 1298.85 182.71 1330.49 150.53 1372.18 150.53 1338.94 182.71"/>
  </g>
  <g id="Titulo-2" data-name="Titulo">
    <text class="cls-14" transform="translate(868.62 421.95)"><tspan class="cls-18" x="0" y="0">D</tspan><tspan class="cls-16" x="69.16" y="0">AT</tspan><tspan class="cls-12" x="174.67" y="0">A INSIGH</tspan><tspan class="cls-15" x="573.75" y="0">T</tspan><tspan class="cls-12" x="622.38" y="0">S</tspan></text>
  </g>
</svg>