<?xml version="1.0" encoding="utf-8"?>
<!-- Generator: Adobe Illustrator 27.8.1, SVG Export Plug-In . SVG Version: 6.00 Build 0)  -->
<svg version="1.1" id="Layer_6" xmlns="http://www.w3.org/2000/svg" xmlns:xlink="http://www.w3.org/1999/xlink" x="0px" y="0px"
	 width="820px" height="439.525px" viewBox="0 0 820 439.525" style="enable-background:new 0 0 820 439.525;" xml:space="preserve"
	>
<style type="text/css">
	.st0{fill:#F5F5F5;}
	.st1{opacity:0.07;}
	.st2{fill:#333333;}
	.st3{fill:#1CD0BB;}
	.st4{fill:#318DDE;}
	.st5{fill:#3A3A3A;}
</style>
<rect x="91.186" y="15.093" class="st0" width="669.148" height="387.842"/>
<g class="st1">
	<path class="st2" d="M760.437,60.739H91.712c0,0,0.855,43.496,0,42.641h668.725C760.437,103.38,759.719,60.739,760.437,60.739z"/>
</g>
<g class="st1">
	<path class="st2" d="M760.437,148.53H91.712c0,0,0.855,43.496,0,42.641h668.725C760.437,191.171,759.719,148.53,760.437,148.53z"/>
</g>
<g class="st1">
	<path class="st2" d="M760.437,236.321H91.712c0,0,0.855,43.496,0,42.641h668.725C760.437,278.961,759.719,236.321,760.437,236.321z
		"/>
</g>
<g class="st1">
	<path class="st2" d="M760.437,324.112H91.712c0,0,0.855,43.496,0,42.641h668.725C760.437,366.752,759.719,324.112,760.437,324.112z
		"/>
</g>
<g>
	
		<rect x="389.377" y="241.487" transform="matrix(-1 -8.951385e-11 8.951385e-11 -1 811.4289 644.4219)" class="st3" width="32.676" height="161.448"/>
	
		<rect x="357.01" y="286.131" transform="matrix(-1 -8.940283e-11 8.940283e-11 -1 746.6949 689.0659)" class="st4" width="32.676" height="116.804"/>
</g>
<g>
	
		<rect x="310.643" y="306.761" transform="matrix(-1 -8.940283e-11 8.940283e-11 -1 653.9609 709.6961)" class="st3" width="32.676" height="96.174"/>
	
		<rect x="278.276" y="290.83" transform="matrix(-1 -8.951385e-11 8.951385e-11 -1 589.2269 693.7651)" class="st4" width="32.676" height="112.105"/>
</g>
<g>
	
		<rect x="155.424" y="289.445" transform="matrix(-1 -8.951385e-11 8.951385e-11 -1 343.524 692.3797)" class="st3" width="32.676" height="113.49"/>
	
		<rect x="123.057" y="246.154" transform="matrix(-1 -8.951385e-11 8.951385e-11 -1 278.7899 649.0887)" class="st4" width="32.676" height="156.781"/>
</g>
<g>
	
		<rect x="231.325" y="321.827" transform="matrix(-1 -8.951385e-11 8.951385e-11 -1 495.3255 724.7625)" class="st3" width="32.676" height="81.108"/>
	
		<rect x="198.958" y="274.462" transform="matrix(-1 -8.951385e-11 8.951385e-11 -1 430.5914 677.397)" class="st4" width="32.676" height="128.473"/>
</g>
<g>
	
		<rect x="466.578" y="293.431" transform="matrix(-1 -8.951385e-11 8.951385e-11 -1 965.8324 696.3656)" class="st3" width="32.676" height="109.505"/>
	
		<rect x="434.211" y="252.177" transform="matrix(-1 -8.940283e-11 8.940283e-11 -1 901.0983 655.1118)" class="st4" width="32.676" height="150.758"/>
</g>
<g>
	
		<rect x="624.614" y="130.514" transform="matrix(-1 -8.940283e-11 8.940283e-11 -1 1281.9027 533.4493)" class="st3" width="32.676" height="272.421"/>
	
		<rect x="592.247" y="106.577" transform="matrix(-1 -8.951385e-11 8.951385e-11 -1 1217.1687 509.512)" class="st4" width="32.676" height="296.358"/>
</g>
<g>
	
		<rect x="545.879" y="234.243" transform="matrix(-1 -8.951385e-11 8.951385e-11 -1 1124.4347 637.1779)" class="st3" width="32.676" height="168.692"/>
	
		<rect x="513.512" y="190.952" transform="matrix(-1 -8.951385e-11 8.951385e-11 -1 1059.7007 593.8869)" class="st4" width="32.676" height="211.983"/>
</g>
<g>
	
		<rect x="703.25" y="51.804" transform="matrix(-1 -8.951385e-11 8.951385e-11 -1 1439.1749 454.7391)" class="st3" width="32.676" height="351.131"/>
	
		<rect x="670.883" y="76.933" transform="matrix(-1 -8.951385e-11 8.951385e-11 -1 1374.4409 479.8676)" class="st4" width="32.676" height="326.002"/>
</g>
<g>
	
		<rect x="757.446" y="86.007" transform="matrix(0.1353 -0.9908 0.9908 0.1353 569.6469 826.713)" class="st5" width="2" height="2"/>
	<path class="st5" d="M329.516,292.318l-3.999-0.376l0.188-1.991l3.999,0.376L329.516,292.318z M321.48,291.561l-3.999-0.376
		l0.188-1.991l3.999,0.376L321.48,291.561z M333.823,291.374l-0.662-1.888l3.791-1.329l0.661,1.888L333.823,291.374z
		 M313.444,290.805l-3.999-0.376l0.188-1.991l3.999,0.376L313.444,290.805z M305.408,290.048l-3.999-0.376l0.188-1.991l3.999,0.376
		L305.408,290.048z M297.372,289.292l-3.999-0.376l0.188-1.991l3.999,0.376L297.372,289.292z M341.44,288.704l-0.662-1.888
		l3.791-1.329l0.661,1.888L341.44,288.704z M289.336,288.535l-3.999-0.376l0.188-1.991l3.999,0.376L289.336,288.535z M281.3,287.779
		l-3.999-0.376l0.188-1.991l3.999,0.376L281.3,287.779z M273.264,287.022l-3.999-0.376l0.188-1.991l3.999,0.376L273.264,287.022z
		 M265.228,286.266l-3.999-0.376l0.188-1.991l3.999,0.376L265.228,286.266z M349.056,286.033l-0.661-1.888l3.79-1.329l0.662,1.888
		L349.056,286.033z M257.192,285.509l-3.999-0.376l0.188-1.991l3.999,0.376L257.192,285.509z M248.835,284.381l-3.498-1.975
		l0.983-1.741l3.498,1.975L248.835,284.381z M356.674,283.363l-0.662-1.888l3.79-1.329l0.662,1.888L356.674,283.363z
		 M364.291,280.693l-0.662-1.888l3.79-1.329l0.662,1.888L364.291,280.693z M241.807,280.413l-3.498-1.975l0.983-1.741l3.498,1.975
		L241.807,280.413z M371.908,278.022l-0.662-1.888l3.79-1.329l0.662,1.888L371.908,278.022z M234.778,276.445l-3.498-1.975
		l0.983-1.741l3.498,1.975L234.778,276.445z M379.525,275.352l-0.662-1.888l3.79-1.329l0.662,1.888L379.525,275.352z
		 M387.142,272.682l-0.662-1.888l3.79-1.329l0.662,1.888L387.142,272.682z M227.749,272.477l-3.497-1.975l0.983-1.741l3.497,1.975
		L227.749,272.477z M394.759,270.011l-0.662-1.888l3.79-1.329l0.662,1.888L394.759,270.011z M220.72,268.508l-3.497-1.974
		l0.983-1.741l3.497,1.974L220.72,268.508z M402.376,267.341l-0.662-1.888l2.156-0.756l1.316-0.803l1.041,1.708l-1.596,0.948
		L402.376,267.341z M213.691,264.54l-3.497-1.974l0.983-1.741l3.497,1.974L213.691,264.54z M409.71,263.482l-1.039-1.709
		l3.449-2.096l1.039,1.71L409.71,263.482z M206.663,260.572l-3.497-1.975l0.983-1.741l3.497,1.975L206.663,260.572z M416.64,259.276
		l-1.036-1.711l3.448-2.087l1.035,1.712L416.64,259.276z M199.634,256.604l-3.498-1.975l0.983-1.741l3.498,1.975L199.634,256.604z
		 M423.569,255.088l-1.033-1.713l3.45-2.08l1.031,1.714L423.569,255.088z M192.605,252.636l-3.498-1.975l0.983-1.741l3.498,1.975
		L192.605,252.636z M430.501,250.914l-1.029-1.715l3.454-2.072l1.027,1.716L430.501,250.914z M185.577,248.667l-3.498-1.975
		l0.983-1.741l3.498,1.975L185.577,248.667z M437.442,246.755l-1.027-1.717l3.459-2.064l1.023,1.718L437.442,246.755z
		 M178.548,244.699l-3.498-1.975l0.983-1.741l3.498,1.975L178.548,244.699z M444.389,242.615l-1.021-1.72l3.465-2.054l1.018,1.722
		L444.389,242.615z M171.519,240.731l-1.926-1.087l-1.371-0.128l0.186-1.991l1.796,0.167l2.298,1.297L171.519,240.731z
		 M164.184,239.141l-3.999-0.372l0.186-1.991l3.999,0.372L164.184,239.141z M451.35,238.495l-1.016-1.723
		c1.166-0.688,2.325-1.37,3.473-2.043l1.012,1.726C453.673,237.127,452.516,237.808,451.35,238.495z M156.147,238.393l-3.999-0.372
		l0.186-1.991l3.999,0.372L156.147,238.393z M148.11,237.646l-3.999-0.372l0.186-1.991l3.999,0.372L148.11,237.646z
		 M140.074,236.898l-3.999-0.372l0.186-1.991l3.999,0.372L140.074,236.898z M132.037,236.15l-3.999-0.372l0.186-1.991l3.999,0.372
		L132.037,236.15z M124,235.403l-3.999-0.372l0.186-1.991l3.999,0.372L124,235.403z M115.963,234.655l-3.998-0.372l0.185-1.991
		l3.999,0.372L115.963,234.655z M458.326,234.402l-1.008-1.728c1.182-0.689,2.345-1.366,3.484-2.026l1.002,1.73
		C460.667,233.039,459.506,233.714,458.326,234.402z M107.926,233.907l-3.999-0.372l0.186-1.991l3.999,0.372L107.926,233.907z
		 M99.89,233.16l-3.999-0.372l0.186-1.991l3.999,0.372L99.89,233.16z M465.325,230.349l-0.996-1.734c1.205-0.692,2.374-1.36,3.503-2
		l0.986,1.739C467.693,228.992,466.526,229.659,465.325,230.349z M472.357,226.36l-0.975-1.746c1.257-0.702,2.442-1.356,3.541-1.953
		l0.955,1.758C474.786,225.012,473.608,225.662,472.357,226.36z M479.459,222.519l-0.914-1.779c1.658-0.852,2.881-1.432,3.735-1.771
		l0.738,1.859C482.234,221.138,481.037,221.707,479.459,222.519z M486.73,218.541l-1.381-1.447c0.751-0.716,1.694-1.673,2.805-2.844
		l1.451,1.376C488.473,216.821,487.505,217.802,486.73,218.541z M492.393,212.625l-1.477-1.349c0.844-0.925,1.744-1.923,2.693-2.986
		l1.492,1.332C494.146,210.691,493.242,211.694,492.393,212.625z M497.805,206.572l-1.5-1.322c0.854-0.97,1.738-1.98,2.651-3.026
		l1.508,1.314C499.549,204.587,498.661,205.6,497.805,206.572z M503.133,200.464l-1.514-1.308c0.857-0.991,1.733-2.007,2.627-3.048
		l1.518,1.304C504.868,198.454,503.99,199.472,503.133,200.464z M508.412,194.323l-1.521-1.299l2.61-3.062l1.523,1.296
		L508.412,194.323z M513.656,188.16l-1.525-1.294l2.6-3.07l1.527,1.291L513.656,188.16z M518.878,181.98l-1.529-1.289l2.591-3.078
		l1.531,1.286L518.878,181.98z M524.083,175.787l-1.532-1.285l2.582-3.084l1.534,1.283L524.083,175.787z M529.273,169.582
		l-1.535-1.282l2.576-3.089l1.537,1.28L529.273,169.582z M534.454,163.363l-1.537-1.279l2.566-3.087l1.539,1.277L534.454,163.363z
		 M539.615,157.146l-1.539-1.276l2.567-3.098l1.541,1.275L539.615,157.146z M544.829,150.852l-1.595-1.21l2.562-3.102l1.543,1.273
		L544.829,150.852z M549.927,144.679l-1.543-1.273l2.561-3.105l1.543,1.271L549.927,144.679z M555.072,138.434l-1.545-1.271
		l2.558-3.108l1.545,1.27L555.072,138.434z M560.21,132.182l-1.545-1.27l2.555-3.113l1.547,1.269L560.21,132.182z M565.346,125.921
		l-1.547-1.269l2.554-3.118l1.549,1.267L565.346,125.921z M570.482,119.646l-1.549-1.265l2.556-3.129l1.549,1.265L570.482,119.646z
		 M575.623,113.349l-1.551-1.264l0.848-1.041l2.759-1.447l0.93,1.771l-2.396,1.257L575.623,113.349z M582.2,109.485l-0.93-1.771
		l3.557-1.866l0.93,1.771L582.2,109.485z M589.349,105.736l-0.93-1.771l3.557-1.866l0.93,1.771L589.349,105.736z M596.496,101.987
		l-0.93-1.771l3.557-1.865l0.93,1.771L596.496,101.987z M603.645,98.238l-0.93-1.771l3.557-1.865l0.93,1.771L603.645,98.238z
		 M610.791,94.489l-0.928-1.771l3.558-1.865l0.929,1.771L610.791,94.489z M617.94,90.74l-0.93-1.771l3.557-1.865l0.93,1.771
		L617.94,90.74z M753.301,87.313l-3.979-0.543l0.271-1.981l3.979,0.543L753.301,87.313z M625.089,86.991l-0.93-1.771l3.557-1.865
		l0.93,1.771L625.089,86.991z M745.304,86.221l-3.979-0.543l0.271-1.981l3.979,0.543L745.304,86.221z M737.307,85.129l-3.979-0.543
		l0.271-1.981l3.979,0.543L737.307,85.129z M729.309,84.037l-3.979-0.543l0.271-1.981l3.979,0.543L729.309,84.037z M632.236,83.242
		l-0.93-1.771l3.557-1.865l0.93,1.771L632.236,83.242z M721.312,82.944l-3.979-0.544l0.271-1.981l3.979,0.544L721.312,82.944z
		 M713.314,81.852l-3.979-0.543l0.271-1.981l3.979,0.543L713.314,81.852z M705.317,80.759l-3.979-0.543l0.271-1.981l3.979,0.543
		L705.317,80.759z M697.319,79.667l-3.979-0.543l0.271-1.981l3.979,0.543L697.319,79.667z M639.385,79.493l-0.93-1.771l3.557-1.865
		l0.93,1.771L639.385,79.493z M689.322,78.575l-3.979-0.543l0.271-1.981l3.979,0.543L689.322,78.575z M681.325,77.482l-3.979-0.543
		l0.271-1.981l3.979,0.543L681.325,77.482z M673.328,76.39l-3.979-0.543l0.271-1.981l3.979,0.543L673.328,76.39z M646.533,75.744
		l-0.93-1.771l3.557-1.865l0.93,1.771L646.533,75.744z M665.331,75.298l-3.979-0.543l0.271-1.981l3.979,0.543L665.331,75.298z
		 M657.333,74.206l-3.979-0.543l0.271-1.981l3.979,0.543L657.333,74.206z"/>
	
		<rect x="90.707" y="230.394" transform="matrix(0.0925 -0.9957 0.9957 0.0925 -147.1808 301.2948)" class="st5" width="2" height="2"/>
</g>
<g>
	<g>
		<path class="st2" d="M58.868,362.596l0.912-1.068c0.672,0.624,1.379,1.008,2.159,1.008c1.008,0,1.667-0.576,1.667-1.451v-0.024
			c0-0.852-0.72-1.392-1.739-1.392c-0.6,0-1.115,0.168-1.547,0.372l-0.888-0.588l0.24-4.114h5.025v1.308h-3.754l-0.132,1.967
			c0.396-0.144,0.768-0.24,1.331-0.24c1.631,0,2.926,0.863,2.926,2.638v0.024c0,1.715-1.259,2.843-3.118,2.843
			C60.667,363.879,59.66,363.363,58.868,362.596z"/>
	</g>
</g>
<g>
	<g>
		<path class="st2" d="M532.202,424.354l2.89-2.459c1.151-0.983,1.571-1.511,1.571-2.267c0-0.827-0.588-1.308-1.355-1.308
			s-1.295,0.42-1.931,1.26l-1.056-0.827c0.804-1.116,1.596-1.751,3.095-1.751c1.643,0,2.771,1.007,2.771,2.506v0.024
			c0,1.319-0.695,2.039-2.183,3.25l-1.728,1.439h3.994v1.295h-6.068V424.354z"/>
		<path class="st2" d="M540.254,421.344v-0.023c0-2.398,1.463-4.342,3.67-4.342c2.194,0,3.646,1.919,3.646,4.317v0.024
			c0,2.398-1.463,4.342-3.67,4.342C541.693,425.662,540.254,423.743,540.254,421.344z M546.047,421.344v-0.023
			c0-1.655-0.852-3.011-2.147-3.011c-1.295,0-2.123,1.319-2.123,2.986v0.024c0,1.655,0.84,3.01,2.147,3.01
			C545.23,424.33,546.047,422.987,546.047,421.344z"/>
		<path class="st2" d="M549.326,424.354l2.89-2.459c1.151-0.983,1.571-1.511,1.571-2.267c0-0.827-0.588-1.308-1.355-1.308
			s-1.295,0.42-1.931,1.26l-1.056-0.827c0.804-1.116,1.596-1.751,3.095-1.751c1.643,0,2.771,1.007,2.771,2.506v0.024
			c0,1.319-0.695,2.039-2.183,3.25l-1.728,1.439h3.994v1.295h-6.068V424.354z"/>
		<path class="st2" d="M561.635,418.418h-4.222v-1.296h5.901v1.116l-3.778,7.279h-1.667L561.635,418.418z"/>
	</g>
</g>
<g>
	<g>
		<path class="st2" d="M610.585,424.354l2.891-2.459c1.151-0.983,1.571-1.511,1.571-2.267c0-0.827-0.588-1.308-1.355-1.308
			s-1.295,0.42-1.931,1.26l-1.056-0.827c0.804-1.116,1.595-1.751,3.094-1.751c1.644,0,2.771,1.007,2.771,2.506v0.024
			c0,1.319-0.695,2.039-2.183,3.25l-1.727,1.439h3.993v1.295h-6.068V424.354z"/>
		<path class="st2" d="M618.637,421.344v-0.023c0-2.398,1.464-4.342,3.67-4.342c2.195,0,3.646,1.919,3.646,4.317v0.024
			c0,2.398-1.463,4.342-3.67,4.342S618.637,423.743,618.637,421.344z M624.43,421.344v-0.023c0-1.655-0.852-3.011-2.146-3.011
			c-1.296,0-2.123,1.319-2.123,2.986v0.024c0,1.655,0.84,3.01,2.146,3.01C623.614,424.33,624.43,422.987,624.43,421.344z"/>
		<path class="st2" d="M627.709,424.354l2.891-2.459c1.151-0.983,1.571-1.511,1.571-2.267c0-0.827-0.588-1.308-1.355-1.308
			s-1.295,0.42-1.931,1.26l-1.056-0.827c0.804-1.116,1.595-1.751,3.094-1.751c1.644,0,2.771,1.007,2.771,2.506v0.024
			c0,1.319-0.695,2.039-2.183,3.25l-1.727,1.439h3.993v1.295h-6.068V424.354z"/>
		<path class="st2" d="M635.653,423.228v-0.024c0-1.008,0.563-1.644,1.511-2.039c-0.707-0.372-1.223-0.936-1.223-1.871v-0.023
			c0-1.283,1.234-2.267,2.914-2.267c1.679,0,2.914,0.971,2.914,2.267v0.023c0,0.936-0.516,1.499-1.223,1.871
			c0.923,0.42,1.511,1.02,1.511,2.015v0.024c0,1.499-1.367,2.435-3.202,2.435S635.653,424.679,635.653,423.228z M640.618,423.144
			v-0.024c0-0.768-0.768-1.271-1.763-1.271s-1.751,0.504-1.751,1.271v0.024c0,0.684,0.647,1.259,1.751,1.259
			S640.618,423.839,640.618,423.144z M640.354,419.438v-0.024c0-0.647-0.6-1.175-1.499-1.175s-1.499,0.527-1.499,1.163v0.023
			c0,0.732,0.636,1.248,1.499,1.248S640.354,420.157,640.354,419.438z"/>
	</g>
</g>
<g>
	<g>
		<path class="st2" d="M688.987,424.354l2.891-2.459c1.151-0.983,1.571-1.511,1.571-2.267c0-0.827-0.588-1.308-1.355-1.308
			s-1.295,0.42-1.931,1.26l-1.056-0.827c0.804-1.116,1.595-1.751,3.094-1.751c1.644,0,2.771,1.007,2.771,2.506v0.024
			c0,1.319-0.695,2.039-2.183,3.25l-1.727,1.439h3.993v1.295h-6.068V424.354z"/>
		<path class="st2" d="M697.039,421.344v-0.023c0-2.398,1.464-4.342,3.67-4.342c2.195,0,3.646,1.919,3.646,4.317v0.024
			c0,2.398-1.463,4.342-3.67,4.342S697.039,423.743,697.039,421.344z M702.832,421.344v-0.023c0-1.655-0.852-3.011-2.146-3.011
			c-1.296,0-2.123,1.319-2.123,2.986v0.024c0,1.655,0.84,3.01,2.146,3.01C702.017,424.33,702.832,422.987,702.832,421.344z"/>
		<path class="st2" d="M706.111,424.354l2.891-2.459c1.151-0.983,1.571-1.511,1.571-2.267c0-0.827-0.588-1.308-1.355-1.308
			s-1.295,0.42-1.931,1.26l-1.056-0.827c0.804-1.116,1.595-1.751,3.094-1.751c1.644,0,2.771,1.007,2.771,2.506v0.024
			c0,1.319-0.695,2.039-2.183,3.25l-1.727,1.439h3.993v1.295h-6.068V424.354z"/>
		<path class="st2" d="M719.141,421.668c-0.468,0.563-1.115,0.899-1.979,0.899c-1.787,0-2.975-1.043-2.975-2.662v-0.024
			c0-1.643,1.271-2.902,3.13-2.902c1.056,0,1.739,0.3,2.339,0.888c0.611,0.623,1.008,1.547,1.008,3.202v0.023
			c0,2.699-1.331,4.57-3.599,4.57c-1.163,0-1.979-0.42-2.687-1.008l0.804-1.127c0.636,0.527,1.199,0.791,1.919,0.791
			C718.589,424.318,719.129,422.783,719.141,421.668z M719.081,419.821v-0.024c0-0.875-0.684-1.547-1.751-1.547
			c-1.044,0-1.668,0.695-1.668,1.559v0.024c0,0.875,0.672,1.499,1.716,1.499C718.445,421.332,719.081,420.637,719.081,419.821z"/>
	</g>
</g>
<g>
	<g>
		<path class="st2" d="M139.294,424.354l2.89-2.459c1.151-0.983,1.571-1.511,1.571-2.267c0-0.827-0.588-1.308-1.355-1.308
			s-1.295,0.42-1.931,1.26l-1.056-0.827c0.804-1.116,1.595-1.751,3.094-1.751c1.643,0,2.771,1.007,2.771,2.506v0.024
			c0,1.319-0.695,2.039-2.183,3.25l-1.727,1.439h3.994v1.295h-6.068V424.354z"/>
		<path class="st2" d="M147.346,421.344v-0.023c0-2.398,1.463-4.342,3.67-4.342c2.195,0,3.646,1.919,3.646,4.317v0.024
			c0,2.398-1.463,4.342-3.67,4.342C148.785,425.662,147.346,423.743,147.346,421.344z M153.139,421.344v-0.023
			c0-1.655-0.852-3.011-2.147-3.011s-2.123,1.319-2.123,2.986v0.024c0,1.655,0.839,3.01,2.146,3.01
			C152.323,424.33,153.139,422.987,153.139,421.344z"/>
		<path class="st2" d="M156.418,424.354l2.89-2.459c1.151-0.983,1.571-1.511,1.571-2.267c0-0.827-0.588-1.308-1.355-1.308
			s-1.295,0.42-1.931,1.26l-1.056-0.827c0.804-1.116,1.595-1.751,3.094-1.751c1.643,0,2.771,1.007,2.771,2.506v0.024
			c0,1.319-0.695,2.039-2.183,3.25l-1.727,1.439h3.994v1.295h-6.068V424.354z"/>
		<path class="st2" d="M164.374,424.354l2.89-2.459c1.151-0.983,1.571-1.511,1.571-2.267c0-0.827-0.588-1.308-1.355-1.308
			s-1.295,0.42-1.931,1.26l-1.056-0.827c0.804-1.116,1.595-1.751,3.094-1.751c1.643,0,2.771,1.007,2.771,2.506v0.024
			c0,1.319-0.695,2.039-2.183,3.25l-1.727,1.439h3.994v1.295h-6.068V424.354z"/>
	</g>
</g>
<g>
	<g>
		<path class="st2" d="M215.82,424.354l2.89-2.459c1.151-0.983,1.571-1.511,1.571-2.267c0-0.827-0.588-1.308-1.355-1.308
			s-1.295,0.42-1.931,1.26l-1.056-0.827c0.804-1.116,1.595-1.751,3.094-1.751c1.643,0,2.771,1.007,2.771,2.506v0.024
			c0,1.319-0.695,2.039-2.183,3.25l-1.727,1.439h3.994v1.295h-6.068V424.354z"/>
		<path class="st2" d="M223.872,421.344v-0.023c0-2.398,1.463-4.342,3.67-4.342c2.195,0,3.646,1.919,3.646,4.317v0.024
			c0,2.398-1.463,4.342-3.67,4.342C225.312,425.662,223.872,423.743,223.872,421.344z M229.665,421.344v-0.023
			c0-1.655-0.852-3.011-2.147-3.011s-2.123,1.319-2.123,2.986v0.024c0,1.655,0.839,3.01,2.146,3.01
			C228.85,424.33,229.665,422.987,229.665,421.344z"/>
		<path class="st2" d="M232.944,424.354l2.89-2.459c1.151-0.983,1.571-1.511,1.571-2.267c0-0.827-0.588-1.308-1.355-1.308
			s-1.295,0.42-1.931,1.26l-1.056-0.827c0.804-1.116,1.595-1.751,3.094-1.751c1.643,0,2.771,1.007,2.771,2.506v0.024
			c0,1.319-0.695,2.039-2.183,3.25l-1.727,1.439h3.994v1.295h-6.068V424.354z"/>
		<path class="st2" d="M240.828,424.187l1.032-0.959c0.6,0.707,1.271,1.103,2.207,1.103c0.828,0,1.451-0.503,1.451-1.271v-0.024
			c0-0.827-0.755-1.295-1.931-1.295h-0.684l-0.24-0.924l2.267-2.411h-3.634v-1.283h5.553v1.104l-2.339,2.398
			c1.271,0.156,2.471,0.804,2.471,2.352v0.023c0,1.547-1.188,2.663-2.938,2.663C242.579,425.662,241.536,425.05,240.828,424.187z"/>
	</g>
</g>
<g>
	<g>
		<path class="st2" d="M295.114,424.354l2.89-2.459c1.151-0.983,1.571-1.511,1.571-2.267c0-0.827-0.588-1.308-1.355-1.308
			s-1.295,0.42-1.931,1.26l-1.056-0.827c0.804-1.116,1.595-1.751,3.094-1.751c1.643,0,2.771,1.007,2.771,2.506v0.024
			c0,1.319-0.695,2.039-2.183,3.25l-1.727,1.439h3.994v1.295h-6.068V424.354z"/>
		<path class="st2" d="M303.166,421.344v-0.023c0-2.398,1.463-4.342,3.67-4.342c2.195,0,3.646,1.919,3.646,4.317v0.024
			c0,2.398-1.463,4.342-3.67,4.342C304.605,425.662,303.166,423.743,303.166,421.344z M308.959,421.344v-0.023
			c0-1.655-0.852-3.011-2.147-3.011s-2.123,1.319-2.123,2.986v0.024c0,1.655,0.839,3.01,2.146,3.01
			C308.144,424.33,308.959,422.987,308.959,421.344z"/>
		<path class="st2" d="M312.238,424.354l2.89-2.459c1.151-0.983,1.571-1.511,1.571-2.267c0-0.827-0.588-1.308-1.355-1.308
			s-1.295,0.42-1.931,1.26l-1.056-0.827c0.804-1.116,1.595-1.751,3.094-1.751c1.643,0,2.771,1.007,2.771,2.506v0.024
			c0,1.319-0.695,2.039-2.183,3.25l-1.727,1.439h3.994v1.295h-6.068V424.354z"/>
		<path class="st2" d="M324.308,423.635h-4.234l-0.276-1.056l4.666-5.517h1.259v5.361h1.199v1.211h-1.199v1.883h-1.415V423.635z
			 M324.308,422.424v-3.322l-2.759,3.322H324.308z"/>
	</g>
</g>
<g>
	<g>
		<path class="st2" d="M376.909,424.354l2.89-2.459c1.151-0.983,1.571-1.511,1.571-2.267c0-0.827-0.588-1.308-1.355-1.308
			s-1.295,0.42-1.931,1.26l-1.056-0.827c0.804-1.116,1.595-1.751,3.094-1.751c1.643,0,2.771,1.007,2.771,2.506v0.024
			c0,1.319-0.695,2.039-2.183,3.25l-1.727,1.439h3.994v1.295h-6.068V424.354z"/>
		<path class="st2" d="M384.96,421.344v-0.023c0-2.398,1.463-4.342,3.67-4.342c2.195,0,3.646,1.919,3.646,4.317v0.024
			c0,2.398-1.463,4.342-3.67,4.342C386.4,425.662,384.96,423.743,384.96,421.344z M390.753,421.344v-0.023
			c0-1.655-0.852-3.011-2.147-3.011s-2.123,1.319-2.123,2.986v0.024c0,1.655,0.84,3.01,2.147,3.01S390.753,422.987,390.753,421.344z
			"/>
		<path class="st2" d="M394.033,424.354l2.89-2.459c1.151-0.983,1.571-1.511,1.571-2.267c0-0.827-0.588-1.308-1.355-1.308
			s-1.295,0.42-1.931,1.26l-1.056-0.827c0.804-1.116,1.595-1.751,3.094-1.751c1.643,0,2.771,1.007,2.771,2.506v0.024
			c0,1.319-0.695,2.039-2.183,3.25l-1.727,1.439h3.994v1.295h-6.068V424.354z"/>
		<path class="st2" d="M401.964,424.379l0.912-1.068c0.672,0.624,1.379,1.008,2.159,1.008c1.008,0,1.667-0.575,1.667-1.451v-0.023
			c0-0.852-0.72-1.392-1.739-1.392c-0.6,0-1.115,0.168-1.547,0.372l-0.888-0.588l0.24-4.114h5.025v1.308h-3.754l-0.132,1.967
			c0.396-0.144,0.768-0.239,1.331-0.239c1.631,0,2.926,0.863,2.926,2.638v0.024c0,1.715-1.259,2.843-3.118,2.843
			C403.764,425.662,402.756,425.146,401.964,424.379z"/>
	</g>
</g>
<g>
	<g>
		<path class="st2" d="M451.266,424.354l2.89-2.459c1.151-0.983,1.571-1.511,1.571-2.267c0-0.827-0.588-1.308-1.355-1.308
			s-1.295,0.42-1.931,1.26l-1.056-0.827c0.804-1.116,1.596-1.751,3.095-1.751c1.643,0,2.771,1.007,2.771,2.506v0.024
			c0,1.319-0.695,2.039-2.183,3.25l-1.728,1.439h3.994v1.295h-6.068V424.354z"/>
		<path class="st2" d="M459.317,421.344v-0.023c0-2.398,1.463-4.342,3.67-4.342c2.194,0,3.646,1.919,3.646,4.317v0.024
			c0,2.398-1.463,4.342-3.67,4.342C460.757,425.662,459.317,423.743,459.317,421.344z M465.11,421.344v-0.023
			c0-1.655-0.852-3.011-2.147-3.011c-1.295,0-2.123,1.319-2.123,2.986v0.024c0,1.655,0.84,3.01,2.147,3.01
			C464.294,424.33,465.11,422.987,465.11,421.344z"/>
		<path class="st2" d="M468.39,424.354l2.89-2.459c1.151-0.983,1.571-1.511,1.571-2.267c0-0.827-0.588-1.308-1.355-1.308
			s-1.295,0.42-1.931,1.26l-1.056-0.827c0.804-1.116,1.596-1.751,3.095-1.751c1.643,0,2.771,1.007,2.771,2.506v0.024
			c0,1.319-0.695,2.039-2.183,3.25l-1.728,1.439h3.994v1.295h-6.068V424.354z"/>
		<path class="st2" d="M477.461,424.774c-0.636-0.636-1.02-1.512-1.02-3.202v-0.024c0-2.566,1.223-4.569,3.598-4.569
			c1.092,0,1.835,0.348,2.566,0.936l-0.791,1.14c-0.588-0.456-1.08-0.732-1.823-0.732c-1.463,0-1.991,1.523-2.015,2.675
			c0.491-0.516,1.115-0.852,2.015-0.852c1.619,0,2.927,0.96,2.927,2.639v0.024c0,1.667-1.355,2.854-3.118,2.854
			C478.768,425.662,478.024,425.338,477.461,424.774z M481.442,422.867v-0.023c0-0.84-0.672-1.464-1.715-1.464
			c-1.044,0-1.703,0.672-1.703,1.476v0.023c0,0.852,0.695,1.5,1.739,1.5C480.807,424.379,481.442,423.73,481.442,422.867z"/>
	</g>
</g>
<g>
	<g>
		<path class="st2" d="M57.157,313.792l-1.511,0.419l-0.312-1.199l2.267-0.72h1.02v8.456h-1.463V313.792z"/>
		<path class="st2" d="M61.058,316.575v-0.024c0-2.398,1.463-4.341,3.67-4.341c2.195,0,3.646,1.919,3.646,4.317v0.024
			c0,2.399-1.463,4.342-3.67,4.342C62.498,320.893,61.058,318.974,61.058,316.575z M66.851,316.575v-0.024
			c0-1.655-0.852-3.01-2.147-3.01s-2.123,1.319-2.123,2.986v0.024c0,1.655,0.839,3.01,2.146,3.01
			C66.036,319.561,66.851,318.218,66.851,316.575z"/>
	</g>
</g>
<g>
	<g>
		<path class="st2" d="M57.763,270.806l-1.511,0.419l-0.312-1.199l2.267-0.72h1.02v8.456h-1.463V270.806z"/>
		<path class="st2" d="M61.544,276.623l0.912-1.068c0.672,0.624,1.379,1.008,2.159,1.008c1.008,0,1.667-0.576,1.667-1.451v-0.024
			c0-0.852-0.72-1.392-1.739-1.392c-0.6,0-1.115,0.168-1.547,0.372l-0.888-0.588l0.24-4.114h5.025v1.308h-3.754l-0.132,1.967
			c0.396-0.144,0.768-0.24,1.331-0.24c1.631,0,2.926,0.863,2.926,2.638v0.024c0,1.715-1.259,2.843-3.118,2.843
			C63.343,277.906,62.336,277.391,61.544,276.623z"/>
	</g>
</g>
<g>
	<g>
		<path class="st2" d="M54.309,233.612l2.89-2.458c1.151-0.983,1.571-1.511,1.571-2.267c0-0.828-0.588-1.308-1.355-1.308
			s-1.295,0.42-1.931,1.26l-1.056-0.828c0.804-1.116,1.595-1.751,3.094-1.751c1.643,0,2.771,1.007,2.771,2.506v0.024
			c0,1.319-0.695,2.039-2.183,3.25l-1.727,1.439h3.994v1.295h-6.068V233.612z"/>
		<path class="st2" d="M62.36,230.602v-0.024c0-2.398,1.463-4.341,3.67-4.341c2.195,0,3.646,1.919,3.646,4.317v0.024
			c0,2.399-1.463,4.342-3.67,4.342C63.8,234.92,62.36,233.001,62.36,230.602z M68.153,230.602v-0.024c0-1.655-0.852-3.01-2.147-3.01
			s-2.123,1.319-2.123,2.986v0.024c0,1.655,0.84,3.01,2.147,3.01S68.153,232.245,68.153,230.602z"/>
	</g>
</g>
<g>
	<g>
		<path class="st2" d="M54.915,190.626l2.89-2.458c1.151-0.983,1.571-1.511,1.571-2.267c0-0.828-0.588-1.308-1.355-1.308
			s-1.295,0.42-1.931,1.26l-1.056-0.828c0.804-1.116,1.595-1.751,3.094-1.751c1.643,0,2.771,1.007,2.771,2.506v0.024
			c0,1.319-0.695,2.039-2.183,3.25l-1.727,1.439h3.994v1.295h-6.068V190.626z"/>
		<path class="st2" d="M62.846,190.65l0.912-1.068c0.672,0.624,1.379,1.008,2.159,1.008c1.008,0,1.667-0.576,1.667-1.451v-0.024
			c0-0.852-0.72-1.392-1.739-1.392c-0.6,0-1.115,0.168-1.547,0.372l-0.887-0.588l0.24-4.114h5.025v1.308h-3.754l-0.132,1.967
			c0.396-0.144,0.768-0.24,1.331-0.24c1.631,0,2.926,0.863,2.926,2.638v0.024c0,1.715-1.259,2.843-3.118,2.843
			C64.646,191.934,63.638,191.418,62.846,190.65z"/>
	</g>
</g>
<g>
	<g>
		<path class="st2" d="M54.206,147.472l1.032-0.959c0.6,0.708,1.271,1.103,2.207,1.103c0.828,0,1.451-0.503,1.451-1.271v-0.024
			c0-0.828-0.755-1.295-1.931-1.295h-0.684l-0.24-0.923l2.267-2.411h-3.634v-1.283h5.553v1.104l-2.339,2.398
			c1.271,0.156,2.471,0.804,2.471,2.351v0.024c0,1.547-1.188,2.663-2.938,2.663C55.957,148.947,54.914,148.335,54.206,147.472z"/>
		<path class="st2" d="M62.39,144.629v-0.024c0-2.398,1.463-4.341,3.67-4.341c2.195,0,3.646,1.919,3.646,4.317v0.024
			c0,2.399-1.463,4.342-3.67,4.342C63.83,148.947,62.39,147.028,62.39,144.629z M68.183,144.629v-0.024
			c0-1.655-0.852-3.01-2.147-3.01s-2.123,1.319-2.123,2.986v0.024c0,1.655,0.839,3.01,2.146,3.01
			C67.368,147.616,68.183,146.272,68.183,144.629z"/>
	</g>
</g>
<g>
	<g>
		<path class="st2" d="M54.842,104.486l1.032-0.959c0.6,0.708,1.271,1.103,2.207,1.103c0.828,0,1.451-0.503,1.451-1.271v-0.024
			c0-0.828-0.755-1.295-1.931-1.295h-0.684l-0.24-0.923l2.267-2.411H55.31v-1.283h5.553v1.104l-2.339,2.398
			c1.271,0.156,2.471,0.804,2.471,2.351v0.024c0,1.547-1.188,2.663-2.938,2.663C56.593,105.961,55.55,105.349,54.842,104.486z"/>
		<path class="st2" d="M62.846,104.678l0.912-1.068c0.672,0.624,1.379,1.008,2.159,1.008c1.008,0,1.667-0.576,1.667-1.451v-0.024
			c0-0.852-0.72-1.392-1.739-1.392c-0.6,0-1.115,0.168-1.547,0.372l-0.887-0.588l0.24-4.114h5.025v1.308h-3.754l-0.132,1.967
			c0.396-0.144,0.768-0.24,1.331-0.24c1.631,0,2.926,0.863,2.926,2.638v0.024c0,1.715-1.259,2.843-3.118,2.843
			C64.646,105.961,63.638,105.445,62.846,104.678z"/>
	</g>
</g>
<g>
	<g>
		<path class="st2" d="M58.248,60.948h-4.234l-0.276-1.056l4.666-5.517h1.259v5.361h1.199v1.211h-1.199v1.883h-1.415V60.948z
			 M58.248,59.736v-3.322l-2.759,3.322H58.248z"/>
		<path class="st2" d="M62.774,58.657v-0.024c0-2.398,1.463-4.341,3.67-4.341c2.195,0,3.646,1.919,3.646,4.317v0.024
			c0,2.399-1.463,4.342-3.67,4.342C64.213,62.975,62.774,61.056,62.774,58.657z M68.567,58.657v-0.024
			c0-1.655-0.852-3.01-2.147-3.01s-2.123,1.319-2.123,2.986v0.024c0,1.655,0.839,3.01,2.146,3.01
			C67.751,61.643,68.567,60.3,68.567,58.657z"/>
	</g>
</g>
</svg>
